<?xml version="1.0"?>
<svg xmlns="http://www.w3.org/2000/svg" height="512px" viewBox="-21 -21 682.66669 682.66669" width="512px"><path d="m618.667969 384h-13.335938c-5.289062-.011719-9.75-3.929688-10.453125-9.171875-4.738281-29.574219-16.394531-57.605469-34.023437-81.816406-3.144531-4.261719-2.734375-10.175781.957031-13.972657l9.496094-9.492187c4.136718-4.160156 4.136718-10.878906 0-15.039063l-15.144532-15.148437c-4.164062-4.132813-10.886718-4.132813-15.046874 0l-9.492188 9.492187c-3.792969 3.695313-9.707031 4.101563-13.972656.960938-24.207032-17.628906-52.242188-29.289062-81.8125-34.027344-5.246094-.699218-9.160156-5.164062-9.175782-10.453125v-13.332031c0-5.890625-4.773437-10.667969-10.664062-10.667969h-21.332031c-5.894531 0-10.667969 4.777344-10.667969 10.667969v13.332031c-.011719 5.289063-3.929688 9.753907-9.171875 10.453125-29.574219 4.738282-57.605469 16.398438-81.816406 34.027344-4.261719 3.140625-10.175781 2.734375-13.972657-.960938l-9.492187-9.492187c-4.160156-4.132813-10.878906-4.132813-15.039063 0l-15.148437 15.148437c-4.132813 4.160157-4.132813 10.878907 0 15.039063l9.492187 9.492187c3.695313 3.796876 4.101563 9.710938.960938 13.972657-17.628906 24.210937-29.289062 52.242187-34.027344 81.816406-.699218 5.242187-5.164062 9.160156-10.453125 9.171875h-13.332031c-5.890625 0-10.667969 4.773438-10.667969 10.667969v21.332031c0 5.890625 4.777344 10.664062 10.667969 10.664062h13.332031c5.289063.015626 9.753907 3.929688 10.453125 9.175782 4.738282 29.570312 16.398438 57.605468 34.027344 81.8125 3.140625 4.265625 2.734375 10.179687-.960938 13.972656l-9.492187 9.492188c-4.132813 4.160156-4.132813 10.882812 0 15.046874l15.148437 15.144532c4.160157 4.136718 10.878907 4.136718 15.039063 0l9.492187-9.496094c3.796876-3.691406 9.710938-4.101562 13.972657-.957031 24.210937 17.628906 52.242187 29.285156 81.816406 34.023437 5.242187.703125 9.160156 5.164063 9.171875 10.453125v13.335938c0 5.886719 4.773438 10.664062 10.667969 10.664062h21.332031c5.890625 0 10.664062-4.777343 10.664062-10.664062v-13.335938c.015626-5.289062 3.929688-9.75 9.175782-10.453125 29.570312-4.738281 57.605468-16.394531 81.8125-34.023437 4.265625-3.144531 10.179687-2.734375 13.972656.957031l9.492188 9.496094c4.160156 4.136718 10.882812 4.136718 15.046874 0l15.144532-15.144532c4.136718-4.164062 4.136718-10.886718 0-15.046874l-9.496094-9.492188c-3.691406-3.792969-4.101562-9.707031-.957031-13.972656 17.628906-24.207032 29.285156-52.242188 34.023437-81.8125.703125-5.246094 5.164063-9.160156 10.453125-9.175782h13.335938c5.886719 0 10.664062-4.773437 10.664062-10.664062v-21.332031c0-5.894531-4.777343-10.667969-10.664062-10.667969zm-213.335938 181.332031c-88.363281 0-160-71.628906-160-160 0-88.363281 71.636719-160 160-160 88.371094 0 160 71.636719 160 160-.101562 88.324219-71.675781 159.898438-160 160zm0 0" fill="#999999"/><path d="m405.332031 266.664062c-76.550781.074219-138.59375 62.117188-138.667969 138.667969-.019531 10.742188 1.234376 21.449219 3.734376 31.894531.21875.855469.425781 1.8125.640624 2.664063 16.101563 62.78125 73.53125 106.03125 138.3125 104.167969 64.78125-1.867188 119.628907-48.355469 132.089844-111.953125v-.105469c3.410156-17.617188 3.410156-35.71875 0-53.332031v-.109375c-12.890625-64.972656-69.863281-111.816406-136.109375-111.894532zm-80.53125 129.175782c11.410157 5.652344 27.199219 13.542968 27.199219 30.824218-.429688 17.496094-14.503906 31.574219-32 32.003907-15.191406-.042969-28.277344-10.722657-31.363281-25.601563-.425781-2.105468-.636719-4.246094-.636719-6.402344 0-5.886718 4.773438-10.664062 10.667969-10.664062 5.886719 0 10.664062 4.777344 10.664062 10.664062 0 5.894532 4.777344 10.671876 10.667969 10.671876 5.722656-.382813 10.28125-4.945313 10.667969-10.671876 0-3.730468-6.402344-7.25-15.46875-11.835937-11.410157-5.652344-27.199219-13.546875-27.199219-30.828125.429688-17.492188 14.503906-31.574219 32-32 17.652344.050781 31.949219 14.347656 32 32 0 5.890625-4.773438 10.667969-10.667969 10.667969-5.886719 0-10.664062-4.777344-10.664062-10.667969s-4.777344-10.664062-10.667969-10.664062c-5.722656.378906-10.28125 4.941406-10.667969 10.664062 0 3.734375 6.402344 7.253906 15.46875 11.839844zm91.199219-1.171875c5.890625 0 10.664062 4.777343 10.664062 10.664062 0 5.894531-4.773437 10.667969-10.664062 10.667969h-21.332031v21.335938h21.332031c5.890625 0 10.664062 4.773437 10.664062 10.664062s-4.773437 10.667969-10.664062 10.667969h-21.332031c-11.769531-.035157-21.300781-9.566407-21.332031-21.332031v-64c.03125-11.769532 9.5625-21.300782 21.332031-21.335938h21.332031c5.890625 0 10.664062 4.777344 10.664062 10.664062 0 5.894532-4.773437 10.671876-10.664062 10.671876h-21.332031v21.332031zm106.664062 26.664062c.03125 2.511719-.222656 5.015625-.746093 7.464844-3.8125 18.800781-21.253907 31.648437-40.335938 29.71875s-33.605469-18.003906-33.582031-37.183594v-32c-.023438-19.179687 14.5-35.253906 33.582031-37.179687 19.082031-1.925782 36.523438 10.917968 40.335938 29.714844.523437 2.453124.777343 4.960937.746093 7.464843zm0 0" fill="#999999"/><path d="m485.332031 373.335938c-8.832031 0-16 7.164062-16 15.996093v32c0 8.839844 7.167969 16.003907 16 16.003907 8.839844 0 16-7.164063 16-16.003907v-32c0-8.832031-7.160156-15.996093-16-15.996093zm0 0" fill="#999999"/><path d="m21.117188 160h16c4.683593.097656 8.777343 3.199219 10.132812 7.679688 1.621094 5.1875 3.691406 10.214843 6.191406 15.039062 2.316406 4.085938 1.667969 9.210938-1.601562 12.589844l-11.414063 11.410156c-4.050781 4.070312-4.050781 10.648438 0 14.722656l15.46875 15.464844c4.070313 4.050781 10.648438 4.050781 14.722657 0l11.410156-11.414062c3.378906-3.265626 8.5-3.914063 12.585937-1.601563 4.820313 2.5 9.855469 4.570313 15.039063 6.1875 4.484375 1.363281 7.582031 5.449219 7.683594 10.136719v15.996094c.007812 5.773437 4.679687 10.445312 10.453124 10.453124h21.757813c5.769531-.007812 10.445313-4.679687 10.453125-10.453124v-15.996094c.097656-4.6875 3.199219-8.773438 7.679688-10.136719 5.1875-1.617187 10.214843-3.6875 15.039062-6.1875 4.085938-2.3125 9.210938-1.664063 12.589844 1.601563l11.410156 11.414062c4.070312 4.050781 10.648438 4.050781 14.722656 0l15.464844-15.464844c4.050781-4.074218 4.050781-10.652344 0-14.722656l-11.414062-11.410156c-3.265626-3.378906-3.914063-8.503906-1.601563-12.589844 2.5-4.824219 4.570313-9.851562 6.1875-15.039062 1.363281-4.480469 5.449219-7.582032 10.136719-7.679688h15.996094c5.773437-.007812 10.445312-4.683594 10.453124-10.453125v-21.757813c-.007812-5.773437-4.679687-10.445312-10.453124-10.453124h-15.996094c-4.6875-.101563-8.773438-3.199219-10.136719-7.683594-1.617187-5.183594-3.6875-10.21875-6.1875-15.039063-2.3125-4.085937-1.664063-9.207031 1.601563-12.585937l11.414062-11.410156c4.050781-4.074219 4.050781-10.652344 0-14.722657l-15.464844-15.46875c-4.074218-4.050781-10.652344-4.050781-14.722656 0l-11.410156 11.414063c-3.378906 3.269531-8.503906 3.917968-12.589844 1.601562-4.824219-2.5-9.851562-4.570312-15.039062-6.191406-4.480469-1.355469-7.582032-5.449219-7.679688-10.132812v-16c-.007812-5.765626-4.683594-10.4375-10.453125-10.449219h-21.757813c-5.773437.011719-10.445312 4.683593-10.453124 10.449219v16c-.101563 4.683593-3.199219 8.777343-7.683594 10.132812-5.183594 1.621094-10.21875 3.691406-15.039063 6.191406-4.085937 2.316406-9.207031 1.667969-12.585937-1.601562l-11.410156-11.414063c-4.074219-4.050781-10.652344-4.050781-14.722657 0l-15.46875 15.46875c-4.050781 4.070313-4.050781 10.648438 0 14.722657l11.414063 11.410156c3.269531 3.378906 3.917968 8.5 1.601562 12.585937-2.5 4.820313-4.570312 9.855469-6.191406 15.039063-1.355469 4.484375-5.449219 7.582031-10.132812 7.683594h-16c-5.765626.007812-10.4375 4.679687-10.449219 10.453124v21.757813c.011719 5.769531 4.683593 10.445313 10.449219 10.453125zm117.550781-85.332031c35.347656 0 63.996093 28.652343 63.996093 64 0 35.347656-28.648437 63.996093-63.996093 63.996093-35.347657 0-64-28.648437-64-63.996093 0-35.347657 28.652343-64 64-64zm0 0" fill="#999999"/><path d="m138.667969 181.332031c23.5625 0 42.664062-19.101562 42.664062-42.664062 0-23.566407-19.101562-42.667969-42.664062-42.667969-23.566407 0-42.667969 19.101562-42.667969 42.667969 0 23.5625 19.101562 42.664062 42.667969 42.664062zm0-53.332031c5.886719 0 10.664062 4.773438 10.664062 10.667969 0 5.886719-4.777343 10.664062-10.664062 10.664062-5.894531 0-10.667969-4.777343-10.667969-10.664062 0-5.894531 4.773438-10.667969 10.667969-10.667969zm0 0" fill="#999999"/><path d="m106.664062 544c0 5.890625-4.773437 10.667969-10.664062 10.667969s-10.667969-4.777344-10.667969-10.667969 4.777344-10.664062 10.667969-10.664062 10.664062 4.773437 10.664062 10.664062zm0 0" fill="#999999"/><path d="m181.332031 533.335938h-21.332031c-.316406.042968-.632812.109374-.945312.1875v-.082032c-1.457032-9.613281-5.230469-18.730468-10.988282-26.5625l-.054687-.0625c.273437-.15625.542969-.332031.796875-.523437l15.082031-15.089844c4.164063-4.171875 4.164063-10.925781-.003906-15.089844-4.164063-4.164062-10.921875-4.164062-15.089844.003907l-15.082031 15.09375c-.183594.253906-.359375.515624-.519532.789062l-.066406-.050781c-7.832031-5.761719-16.949218-9.53125-26.558594-10.988281h-.09375c.082032-.316407.144532-.640626.1875-.960938v-21.332031c0-5.894531-4.773437-10.667969-10.664062-10.667969s-10.667969 4.773438-10.667969 10.667969v21.332031c.050781.316406.113281.632812.195313.945312h-.089844c-9.609375 1.476563-18.714844 5.246094-26.554688 10.988282l-.0625.054687c-.164062-.269531-.339843-.535156-.53125-.785156l-15.078124-15.085937c-4.164063-4.167969-10.921876-4.167969-15.085938-.003907-4.171875 4.164063-4.175781 10.917969-.007812 15.089844l15.082031 15.089844c.257812.191406.519531.367187.800781.523437v.0625c-5.742188 7.84375-9.511719 16.953125-10.988281 26.5625v.082032c-.332031-.082032-.671875-.144532-1.011719-.1875h-21.332031c-5.894531 0-10.667969 4.773437-10.667969 10.664062s4.773438 10.667969 10.667969 10.667969h21.332031c.320312-.050781.636719-.113281.949219-.195313v.089844c1.472656 9.609375 5.246093 18.714844 10.988281 26.554688v.054687c-.257812.214844-.570312.296875-.804688.539063l-15.015624 15.089843c-4.167969 4.167969-4.164063 10.925781.007812 15.089844 4.164062 4.164063 10.921875 4.160156 15.085938-.007813l15.078124-15.09375c.191407-.257812.367188-.519531.53125-.789062l.0625.054688c7.832032 5.761718 16.941407 9.53125 26.554688 10.984374h.089844c-.082032.320313-.144532.636719-.195313.960938v21.332031c0 5.894531 4.777344 10.667969 10.667969 10.667969s10.664062-4.773438 10.664062-10.667969v-21.332031c-.042968-.320312-.109374-.636719-.1875-.949219h.082032c9.609375-1.472656 18.71875-5.246093 26.5625-10.988281l.0625-.050781c.160156.273437.335937.535156.523437.789062l15.082031 15.09375c2.695313 2.695313 6.621094 3.75 10.304688 2.761719 3.679688-.984375 6.5625-3.859375 7.546875-7.539062.984375-3.679688-.0625-7.609376-2.757813-10.304688l-15.085937-15.101562c-.234375-.242188-.539063-.324219-.796875-.539063l.050781-.054687c5.761719-7.832032 9.53125-16.941407 10.988281-26.554688v-.089844c.316407.082032.640626.144532.960938.195313h21.332031c5.894531 0 10.667969-4.777344 10.667969-10.667969s-4.773438-10.664062-10.667969-10.664062zm-85.332031 42.664062c-17.675781 0-32-14.324219-32-32 0-17.671875 14.324219-32 32-32 17.671875 0 32 14.328125 32 32-.050781 17.648438-14.347656 31.945312-32 32zm0 0" fill="#999999"/><path d="m554.667969 96c0 5.890625-4.777344 10.664062-10.667969 10.664062s-10.664062-4.773437-10.664062-10.664062 4.773437-10.667969 10.664062-10.667969 10.667969 4.777344 10.667969 10.667969zm0 0" fill="#999999"/><path d="m629.332031 85.332031h-21.332031c-.320312.050781-.636719.113281-.949219.195313v-.089844c-1.457031-9.613281-5.222656-18.722656-10.988281-26.554688l-.050781-.0625c.277343-.164062.542969-.339843.800781-.53125l15.070312-15.089843c4.167969-4.167969 4.164063-10.925781-.007812-15.089844-4.164062-4.164063-10.921875-4.160156-15.085938.007813l-15.078124 15.09375c-.191407.257812-.367188.519531-.53125.789062h-.0625c-7.832032-5.761719-16.941407-9.53125-26.554688-10.988281h-.089844c.082032-.332031.144532-.671875.195313-1.011719v-21.332031c0-5.894531-4.777344-10.667969-10.667969-10.667969s-10.664062 4.773438-10.664062 10.667969v21.332031c.042968.320312.109374.636719.1875.949219h-.082032c-9.609375 1.472656-18.71875 5.246093-26.5625 10.988281h-.0625c-.160156-.273438-.335937-.539062-.523437-.792969l-15.082031-15.027343c-4.164063-4.167969-10.917969-4.171876-15.085938-.007813-4.171875 4.164063-4.171875 10.921875-.007812 15.089844l15.085937 15.089843c.25.191407.519531.367188.796875.53125l-.050781.0625c-5.746094 7.839844-9.511719 16.945313-10.988281 26.554688v.089844c-.316407-.082032-.640626-.144532-.960938-.195313h-21.332031c-5.894531 0-10.667969 4.777344-10.667969 10.667969s4.773438 10.664062 10.667969 10.664062h21.332031c.316406-.042968.632812-.109374.945312-.1875v.082032c1.476563 9.609375 5.246094 18.71875 10.988282 26.5625h.054687c-.253906.214844-.5625.296875-.796875.53125l-15.074218 15.144531c-4.164063 4.171875-4.164063 10.925781.007812 15.089844 4.167969 4.164062 10.921875 4.164062 15.085938-.003907l15.082031-15.09375c.1875-.253906.363281-.515624.523437-.789062l.0625.050781c7.832032 5.761719 16.949219 9.53125 26.5625 10.988281h.082032c-.082032.316407-.144532.640626-.1875.960938v21.332031c0 5.894531 4.773437 10.667969 10.664062 10.667969s10.667969-4.773438 10.667969-10.667969v-21.332031c-.050781-.316406-.113281-.632812-.195313-.945312h.089844c9.609375-1.476563 18.714844-5.246094 26.554688-10.988282l.0625-.054687c.164062.269531.339843.535156.53125.785156l15.078124 15.09375c4.164063 4.171875 10.921876 4.171875 15.085938.007813 4.171875-4.167969 4.175781-10.921876.007812-15.089844l-15.082031-15.101563c-.234375-.234375-.546875-.316406-.800781-.535156h.054688c5.761718-7.828125 9.53125-16.945313 10.984374-26.5625v-.132813c.320313.082032.636719.144532.960938.1875h21.332031c5.894531 0 10.667969-4.773437 10.667969-10.664062s-4.773438-10.667969-10.667969-10.667969zm-85.332031 42.667969c-17.671875 0-32-14.328125-32-32 0-17.675781 14.328125-32 32-32 17.675781 0 32 14.324219 32 32-.054688 17.652344-14.351562 31.949219-32 32zm0 0" fill="#999999"/><path d="m330.667969 128c5.890625 0 10.664062-4.777344 10.664062-10.664062v-21.335938c0-5.890625-4.773437-10.667969-10.664062-10.667969-5.894531 0-10.667969 4.777344-10.667969 10.667969v21.335938c0 5.886718 4.773438 10.664062 10.667969 10.664062zm0 0" fill="#999999"/><path d="m362.664062 160c2.828126 0 5.542969-1.125 7.546876-3.125l10.664062-10.667969c4.042969-4.183593 3.984375-10.835937-.128906-14.953125-4.113282-4.113281-10.769532-4.167968-14.957032-.128906l-10.664062 10.667969c-3.050781 3.050781-3.960938 7.636719-2.3125 11.621093 1.648438 3.988282 5.542969 6.585938 9.851562 6.585938zm0 0" fill="#999999"/><path d="m123.234375 310.453125-21.335937 10.664063c-3.414063 1.703124-5.652344 5.097656-5.882813 8.90625-.230469 3.804687 1.585937 7.441406 4.765625 9.546874 3.183594 2.101563 7.242188 2.347657 10.65625.644532l21.332031-10.667969c5.273438-2.632813 7.410157-9.042969 4.777344-14.3125-2.632813-5.273437-9.039063-7.414063-14.3125-4.78125zm0 0" fill="#999999"/><path d="m150.453125 336.566406-10.667969 21.332032c-2.632812 5.269531-.492187 11.679687 4.78125 14.3125 5.273438 2.636718 11.679688.492187 14.316406-4.773438l10.664063-21.335938c2.632813-5.273437.492187-11.683593-4.78125-14.3125-5.269531-2.632812-11.679687-.496093-14.3125 4.777344zm0 0" fill="#999999"/></svg>
