<?xml version="1.0"?>
<svg xmlns="http://www.w3.org/2000/svg" height="512px" viewBox="0 0 464 464.008" width="512px"><path d="m.00390625 392.007812c0 13.230469 10.76953175 24 23.99999975 24h416c13.230469 0 24-10.769531 24-24v-8h-463.99999975zm0 0" fill="#999999"/><path d="m448.605469 168.542969 9.292969 18.585937-30.78125 30.78125-18.585938-9.292968c-8.871094 5.214843-18.328125 9.152343-28.199219 11.726562l-6.558593 19.671875h-43.53125l-6.558594-19.671875c-9.871094-2.574219-19.328125-6.503906-28.199219-11.726562l-18.585937 9.292968-30.78125-30.78125 9.292968-18.585937c-5.214844-8.871094-9.148437-18.328125-11.726562-28.199219l-19.679688-6.566406v-5.769532h-200c-13.230468 0-23.99999975 10.769532-23.99999975 24v216h463.99999975v-228.894531l-3.671875 1.222657c-2.574219 9.878906-6.503906 19.328124-11.726562 28.207031zm-368.601563 23.464843h16v16h-16zm0 96h120v16h-120zm-16-120h-8c-4.414062 0-8 3.585938-8 8v8c0 9.542969-4.199218 18.136719-10.855468 24 6.65625 5.871094 10.855468 14.457032 10.855468 24v8c0 4.417969 3.585938 8 8 8h8v16h-8c-13.230468 0-24-10.769531-24-24v-8c0-8.824218-7.175781-16-16-16v-16c8.824219 0 16-7.175781 16-16v-8c0-13.230468 10.769532-24 24-24h8zm168 168h-152v-16h152zm0-32h-16v-16h16zm0-32h-152v-16h152zm0-32h-152v-16h152zm0-32h-120v-16h120zm0-32h-152v-16h152zm64 112c-8.824218 0-16 7.175782-16 16v8c0 13.230469-10.769531 24-24 24h-8v-16h8c4.417969 0 8-3.582031 8-8v-8c0-9.542968 4.199219-18.136718 10.855469-24-6.65625-5.863281-10.855469-14.457031-10.855469-24v-8c0-4.414062-3.582031-8-8-8h-8v-16h8c13.230469 0 24 10.769532 24 24v8c0 8.824219 7.175782 16 16 16zm0 0" fill="#999999"/><path d="m320.003906 432.007812h-176v16h-32v16h240v-16h-32zm0 0" fill="#999999"/><path d="m446.738281 96.015625-.964843-4.449219c-2.417969-11.125-6.808594-21.679687-13.035157-31.367187l-2.46875-3.832031 8.167969-16.328126-14.472656-14.472656-16.328125 8.167969-3.832031-2.46875c-9.6875-6.226563-20.242188-10.617187-31.367188-13.035156l-4.449219-.964844-5.761719-17.265625h-20.46875l-5.761718 17.265625-4.449219.964844c-11.125 2.417969-21.679687 6.808593-31.367187 13.035156l-3.832032 2.46875-16.328125-8.167969-14.472656 14.472656 8.167969 16.328126-2.472656 3.832031c-6.222657 9.6875-10.613282 20.242187-13.03125 31.367187l-.96875 4.449219-17.238282 5.761719v20.46875l17.265625 5.761718.964844 4.449219c2.417969 11.128907 6.808594 21.679688 13.035156 31.367188l2.46875 3.832031-8.167969 16.328125 14.472657 14.472656 16.328125-8.167969 3.832031 2.472657c9.6875 6.222656 20.242187 10.613281 31.367187 13.03125l4.449219.96875 5.761719 17.261719h20.472656l5.757813-17.261719 4.449219-.96875c11.128906-2.417969 21.679687-6.808594 31.367187-13.03125l3.832031-2.472657 16.328125 8.167969 14.472657-14.472656-8.167969-16.328125 2.472656-3.832031c6.222656-9.6875 10.613281-20.238281 13.03125-31.367188l.96875-4.449219 17.238281-5.761718v-20.460938zm-94.734375 95.992187c-44.113281 0-80-35.886718-80-80 0-44.113281 35.886719-80 80-80 44.113282 0 80 35.886719 80 80 0 44.113282-35.886718 80-80 80zm0 0" fill="#999999"/><path d="m352.003906 48.007812c-35.289062 0-64 28.710938-64 64 0 35.289063 28.710938 64 64 64 35.289063 0 64-28.710937 64-64 0-35.289062-28.710937-64-64-64zm0 96c-17.648437 0-32-14.351562-32-32 0-17.648437 14.351563-32 32-32 17.648438 0 32 14.351563 32 32 0 17.648438-14.351562 32-32 32zm0 0" fill="#999999"/></svg>
