<?xml version="1.0"?>
<svg xmlns="http://www.w3.org/2000/svg" height="512px" viewBox="0 -32 448 448" width="512px"><path d="m48 200h64v40h-64zm0 0" fill="#999999"/><path d="m32 160v-96c0-4.417969 3.582031-8 8-8h304c4.417969 0 8 3.582031 8 8v80h32v-128c0-8.835938-7.164062-16-16-16h-352c-8.835938 0-16 7.164062-16 16v224h32v-48c0-4.417969 3.582031-8 8-8h80c4.417969 0 8 3.582031 8 8v48h16v-48c0-4.417969 3.582031-8 8-8h80c4.417969 0 8 3.582031 8 8v48h16v-48c0-4.417969 3.582031-8 8-8h56v-16h-280c-4.417969 0-8-3.582031-8-8zm264-136h48v16h-48zm-64 0h48v16h-48zm-64 0h48v16h-48zm-64 0h48v16h-48zm-64 0h48v16h-48zm0 0" fill="#999999"/><path d="m160 200h64v40h-64zm0 0" fill="#999999"/><path d="m272 200h48v40h-48zm0 0" fill="#999999"/><path d="m0 272c0 8.835938 7.164062 16 16 16h304v-32h-320zm0 0" fill="#999999"/><path d="m226.046875 304h-68.09375l-19.199219 64h-34.753906v16h176v-16h-34.753906zm0 0" fill="#999999"/><path d="m368 224h48v32h-48zm0 0" fill="#999999"/><path d="m336 72h-288v80h278.238281c2.664063-2.949219 6.019531-5.195312 9.761719-6.527344zm0 0" fill="#999999"/><path d="m440 160h-96c-4.417969 0-8 3.582031-8 8v192c0 4.417969 3.582031 8 8 8h96c4.417969 0 8-3.582031 8-8v-192c0-4.417969-3.582031-8-8-8zm-88 16h16v16h-16zm80 168c0 4.417969-3.582031 8-8 8h-64c-4.417969 0-8-3.582031-8-8v-48c0-4.417969 3.582031-8 8-8h64c4.417969 0 8 3.582031 8 8zm0-80c0 4.417969-3.582031 8-8 8h-64c-4.417969 0-8-3.582031-8-8v-48c0-4.417969 3.582031-8 8-8h64c4.417969 0 8 3.582031 8 8zm0 0" fill="#999999"/><path d="m368 304h48v32h-48zm0 0" fill="#999999"/></svg>
